# xmcd
#
# Track frame offsets:
#	150
#	14193
#	30404
#	50024
#	63448
#	76757
#	90544
#	105938
#	130806
#	144018
#	161950
#	175482
#
# Disc length: 2568 seconds
# Revision: 1
# Processed by: cddbd v1.5.2PL0 Copyright (c) Steve Scherf et al.
# Submitted via: dBpowerAMP V12.0
#
DISCID=960a060c
DTITLE=Deer Creek Boys - What Goes Up
DYEAR=2016
DGENRE=Country
TTITLE0=So Good to Be Gone
TTITLE1=Her Memory's Like the Wind
TTITLE2=Kristine
TTITLE3=How a Cowgirl Says Goodbye
TTITLE4=Grey Ghost
TTITLE5=Dallas
TTITLE6=What Goes Up
TTITLE7=The Cremation of Sam McGee
TTITLE8=Little White Church
TTITLE9=Some Kind of Beautiful
TTITLE10=Gypsy Soul
TTITLE11=This One Life You Live
EXTD=
EXTT0=
EXTT1=
EXTT2=
EXTT3=
EXTT4=
EXTT5=
EXTT6=
EXTT7=
EXTT8=
EXTT9=
EXTT10=
EXTT11=
PLAYORDER=
